<svg width="120" height="20" viewBox="0 0 120 20" fill="none" xmlns="http://www.w3.org/2000/svg">
<path d="M7.46003 1.1625C8.5251 1.1625 9.50287 1.4244 10.3933 1.9482C11.3013 2.47201 12.0171 3.18788 12.5409 4.0958C13.0822 4.98627 13.3528 5.96404 13.3528 7.02911C13.3528 8.09418 13.0822 9.08068 12.5409 9.98861C12.0171 10.8965 11.3013 11.6124 10.3933 12.1362C9.50287 12.66 8.5251 12.9219 7.46003 12.9219H3.87196V19.4957H0.964844V1.1625H7.46003ZM7.46003 10.1458C8.31557 10.1458 9.0489 9.8402 9.66001 9.22909C10.2711 8.61799 10.5767 7.88466 10.5767 7.02911C10.5767 6.17356 10.2711 5.44897 9.66001 4.85532C9.0489 4.24422 8.31557 3.93866 7.46003 3.93866H3.87196V10.1458H7.46003Z" fill="#0D0D0D"/>
<path d="M20.5922 19.8361C19.3525 19.8361 18.2001 19.5306 17.1351 18.9195C16.0875 18.2909 15.2581 17.4528 14.647 16.4052C14.0359 15.3402 13.7303 14.1878 13.7303 12.9481C13.7303 11.7084 14.0359 10.5648 14.647 9.51719C15.2581 8.46958 16.0875 7.64022 17.1351 7.02911C18.2001 6.40055 19.3525 6.08626 20.5922 6.08626C21.8319 6.08626 22.9755 6.40055 24.0231 7.02911C25.0882 7.64022 25.9263 8.46958 26.5374 9.51719C27.1485 10.5648 27.454 11.7084 27.454 12.9481C27.454 14.1878 27.1485 15.3402 26.5374 16.4052C25.9263 17.4528 25.0882 18.2909 24.0231 18.9195C22.9755 19.5306 21.8319 19.8361 20.5922 19.8361ZM20.5922 17.0862C21.343 17.0862 22.0327 16.9028 22.6612 16.5362C23.2898 16.1521 23.7874 15.6457 24.1541 15.0171C24.5207 14.3886 24.7041 13.6989 24.7041 12.9481C24.7041 12.1973 24.5207 11.5076 24.1541 10.8791C23.7874 10.2505 23.2898 9.7529 22.6612 9.38624C22.0327 9.01957 21.343 8.83624 20.5922 8.83624C19.8414 8.83624 19.1517 9.01957 18.5232 9.38624C17.8946 9.7529 17.3882 10.2505 17.0041 10.8791C16.6375 11.5076 16.4541 12.1973 16.4541 12.9481C16.4541 13.6989 16.6375 14.3886 17.0041 15.0171C17.3882 15.6457 17.8946 16.1521 18.5232 16.5362C19.1517 16.9028 19.8414 17.0862 20.5922 17.0862Z" fill="#0D0D0D"/>
<path d="M36.1873 6.11245C36.3793 6.11245 36.5277 6.12118 36.6325 6.13864L36.423 8.75767C36.2309 8.70529 36.0476 8.6791 35.873 8.6791C34.7904 8.6791 33.8825 9.01084 33.1492 9.67433C32.4159 10.3204 32.0492 11.237 32.0492 12.4243V19.4957H29.2992V6.40055H32.0492V8.62672C32.346 7.92831 32.8524 7.33467 33.5682 6.84578C34.3016 6.3569 35.1746 6.11245 36.1873 6.11245Z" fill="#0D0D0D"/>
<path d="M43.3877 15.2005C43.3877 15.8989 43.5274 16.379 43.8068 16.6409C44.1036 16.9028 44.575 17.0338 45.2211 17.0338C45.5877 17.0338 46.0068 17.0076 46.4782 16.9552V19.4957C45.6925 19.583 45.029 19.6266 44.4877 19.6266C43.1782 19.6266 42.2092 19.3211 41.5806 18.71C40.952 18.0814 40.6378 16.9727 40.6378 15.3838V8.88862H37.9402V6.40055H40.6378V2.99581L43.3877 2.05296V6.40055H46.4258V8.88862H43.3877V15.2005Z" fill="#0D0D0D"/>
<path d="M56.0376 3.49343C55.5662 3.44105 55.1472 3.41486 54.7805 3.41486C54.1345 3.41486 53.663 3.54581 53.3662 3.80771C53.0869 4.06961 52.9472 4.54977 52.9472 5.24818V6.40055H56.0114V8.88862H52.9472V19.4957H50.1972V8.88862H47.8925V6.40055H50.1972V5.06484C50.1972 3.47597 50.5115 2.37598 51.14 1.76487C51.7861 1.13631 52.7726 0.822022 54.0995 0.822022C54.6059 0.822022 55.2519 0.865673 56.0376 0.952975V3.49343Z" fill="#0D0D0D"/>
<path d="M63.1002 19.8361C61.8605 19.8361 60.7082 19.5306 59.6431 18.9195C58.5955 18.2909 57.7661 17.4528 57.155 16.4052C56.5439 15.3402 56.2383 14.1878 56.2383 12.9481C56.2383 11.7084 56.5439 10.5648 57.155 9.51719C57.7661 8.46958 58.5955 7.64022 59.6431 7.02911C60.7082 6.40055 61.8605 6.08626 63.1002 6.08626C64.3399 6.08626 65.4835 6.40055 66.5311 7.02911C67.5962 7.64022 68.4343 8.46958 69.0454 9.51719C69.6565 10.5648 69.962 11.7084 69.962 12.9481C69.962 14.1878 69.6565 15.3402 69.0454 16.4052C68.4343 17.4528 67.5962 18.2909 66.5311 18.9195C65.4835 19.5306 64.3399 19.8361 63.1002 19.8361ZM63.1002 17.0862C63.851 17.0862 64.5407 16.9028 65.1692 16.5362C65.7978 16.1521 66.2954 15.6457 66.6621 15.0171C67.0287 14.3886 67.2121 13.6989 67.2121 12.9481C67.2121 12.1973 67.0287 11.5076 66.6621 10.8791C66.2954 10.2505 65.7978 9.7529 65.1692 9.38624C64.5407 9.01957 63.851 8.83624 63.1002 8.83624C62.3494 8.83624 61.6597 9.01957 61.0312 9.38624C60.4026 9.7529 59.8963 10.2505 59.5121 10.8791C59.1455 11.5076 58.9621 12.1973 58.9621 12.9481C58.9621 13.6989 59.1455 14.3886 59.5121 15.0171C59.8963 15.6457 60.4026 16.1521 61.0312 16.5362C61.6597 16.9028 62.3494 17.0862 63.1002 17.0862Z" fill="#0D0D0D"/>
<path d="M74.5572 16.2481C74.5572 16.5449 74.6183 16.7544 74.7405 16.8766C74.8802 16.9814 75.0985 17.0338 75.3953 17.0338C75.6223 17.0338 75.8929 17.0076 76.2072 16.9552V19.4957C75.4389 19.6004 74.8977 19.6528 74.5834 19.6528C73.6929 19.6528 73.0032 19.4171 72.5144 18.9457C72.0429 18.4743 71.8072 17.6362 71.8072 16.4314V1.1625H74.5572V16.2481Z" fill="#0D0D0D"/>
<path d="M79.7429 3.80771C79.2191 3.80771 78.8 3.66803 78.4857 3.38867C78.1889 3.09184 78.0405 2.69026 78.0405 2.18392C78.0405 1.67757 78.1889 1.28472 78.4857 1.00535C78.8 0.708531 79.2191 0.56012 79.7429 0.56012C80.2667 0.56012 80.677 0.708531 80.9738 1.00535C81.2881 1.28472 81.4452 1.67757 81.4452 2.18392C81.4452 2.69026 81.2881 3.09184 80.9738 3.38867C80.677 3.66803 80.2667 3.80771 79.7429 3.80771ZM78.3548 19.4957V6.40055H81.1048V19.4957H78.3548Z" fill="#0D0D0D"/>
<path d="M89.6741 19.8361C88.4344 19.8361 87.2821 19.5306 86.217 18.9195C85.1694 18.2909 84.34 17.4528 83.7289 16.4052C83.1178 15.3402 82.8122 14.1878 82.8122 12.9481C82.8122 11.7084 83.1178 10.5648 83.7289 9.51719C84.34 8.46958 85.1694 7.64022 86.217 7.02911C87.2821 6.40055 88.4344 6.08626 89.6741 6.08626C90.9138 6.08626 92.0574 6.40055 93.105 7.02911C94.1701 7.64022 95.0082 8.46958 95.6193 9.51719C96.2304 10.5648 96.5359 11.7084 96.5359 12.9481C96.5359 14.1878 96.2304 15.3402 95.6193 16.4052C95.0082 17.4528 94.1701 18.2909 93.105 18.9195C92.0574 19.5306 90.9138 19.8361 89.6741 19.8361ZM89.6741 17.0862C90.4249 17.0862 91.1146 16.9028 91.7431 16.5362C92.3717 16.1521 92.8693 15.6457 93.236 15.0171C93.6026 14.3886 93.786 13.6989 93.786 12.9481C93.786 12.1973 93.6026 11.5076 93.236 10.8791C92.8693 10.2505 92.3717 9.7529 91.7431 9.38624C91.1146 9.01957 90.4249 8.83624 89.6741 8.83624C88.9233 8.83624 88.2336 9.01957 87.6051 9.38624C86.9765 9.7529 86.4702 10.2505 86.086 10.8791C85.7194 11.5076 85.536 12.1973 85.536 12.9481C85.536 13.6989 85.7194 14.3886 86.086 15.0171C86.4702 15.6457 86.9765 16.1521 87.6051 16.5362C88.2336 16.9028 88.9233 17.0862 89.6741 17.0862Z" fill="#0D0D0D"/>
<path d="M113.958 10.2505L119.929 19.4957H116.446L111.941 12.5029L107.436 19.4957H103.953L109.924 10.2505L104.031 1.1625H107.515L111.941 8.02434L116.367 1.1625H119.85L113.958 10.2505Z" fill="#0D0D0D"/>
</svg>
